<?xml version="1.0" encoding="UTF-8" standalone="no"?>
<!DOCTYPE svg PUBLIC "-//W3C//DTD SVG 1.1//EN" "http://www.w3.org/Graphics/SVG/1.1/DTD/svg11.dtd">
<svg version="1.1" xmlns="http://www.w3.org/2000/svg" xmlns:xlink="http://www.w3.org/1999/xlink" preserveAspectRatio="xMidYMid meet" viewBox="0 0 550 578" width="550" height="578"><defs><path d="M158.35 153.83C158.35 97.48 173.98 44.83 201.33 0C84.32 39.69 0 150.54 0 280.92C0 444.82 132.85 577.67 296.75 577.67C404.31 577.67 498.49 520.5 550.52 434.74C520.5 445.02 488.42 450.58 455.1 450.58C291.2 450.58 158.35 317.73 158.35 153.83Z" id="m3BYycJK1N"></path><path d="M98.09 191.87C98.09 191.87 98.09 191.87 98.09 191.87C82.08 191.87 69.1 178.89 69.1 162.87C69.1 162.87 69.1 162.87 69.1 162.87C69.1 146.86 82.08 133.88 98.09 133.88C98.09 133.88 98.09 133.88 98.09 133.88C114.11 133.88 127.09 146.86 127.09 162.87C127.09 162.87 127.09 162.87 127.09 162.87C127.09 178.89 114.11 191.87 98.09 191.87Z" id="abPMShwZY"></path><path d="M334.8 211.41C336.44 216.34 340.97 219.63 346.11 219.63C349.73 219.63 378.68 219.63 382.3 219.63C393.82 219.63 398.75 234.44 389.29 241.23C386.37 243.34 363.01 260.29 360.09 262.41C355.98 265.49 354.13 270.84 355.77 275.78C356.88 279.21 365.77 306.68 366.88 310.12C370.37 321.22 357.83 330.27 348.58 323.49C345.65 321.37 322.29 304.42 319.37 302.3C315.26 299.22 309.5 299.22 305.39 302.3C302.47 304.42 279.11 321.37 276.19 323.49C266.73 330.27 254.18 321.22 257.88 310.12C258.99 306.68 267.88 279.21 268.99 275.78C270.63 270.84 268.78 265.49 264.67 262.41C261.75 260.29 238.39 243.34 235.47 241.23C226.01 234.44 230.94 219.63 242.46 219.63C246.08 219.63 275.04 219.63 278.65 219.63C283.8 219.63 288.32 216.34 289.97 211.41C291.08 207.97 299.96 180.5 301.07 177.06C304.57 165.96 320.2 165.96 323.69 177.06C325.91 183.93 333.69 207.97 334.8 211.41Z" id="c8wogyrgw"></path><path d="M403.69 517.62C395.06 517.62 388.06 510.62 388.06 501.99C388.06 493.36 395.06 486.36 403.69 486.36C403.69 486.36 403.69 486.36 403.69 486.36C412.32 486.36 419.32 493.36 419.32 501.99C419.32 501.99 419.32 501.99 419.32 501.99C419.32 510.62 412.32 517.62 403.69 517.62Z" id="a1rbMVkU1s"></path><path d="M455.31 120.1C456.54 123.8 459.83 126.27 463.74 126.27C466.43 126.27 487.98 126.27 490.68 126.27C499.32 126.27 502.81 137.37 495.82 142.31C493.64 143.89 476.2 156.56 474.02 158.14C470.94 160.41 469.5 164.52 470.73 168.02C471.55 170.57 478.13 190.97 478.96 193.52C481.63 201.74 472.17 208.53 465.18 203.39C463 201.8 445.56 189.14 443.38 187.55C440.29 185.29 435.98 185.29 432.89 187.55C430.71 189.14 413.27 201.8 411.09 203.39C404.1 208.53 394.64 201.54 397.31 193.52C398.14 190.97 404.72 170.57 405.54 168.02C406.77 164.31 405.33 160.41 402.25 158.14C400.07 156.56 382.63 143.89 380.45 142.31C373.46 137.17 377.16 126.27 385.59 126.27C388.29 126.27 409.84 126.27 412.53 126.27C416.44 126.27 419.73 123.8 420.96 120.1C421.79 117.55 428.37 97.15 429.19 94.6C432.89 86.37 444.41 86.37 447.08 94.6C448.73 99.7 454.48 117.55 455.31 120.1Z" id="dyFQskIH1"></path><path d="M256.44 521.94C256.44 521.94 256.44 521.94 256.44 521.94C244.18 521.94 234.23 511.99 234.23 499.73C234.23 499.73 234.23 499.73 234.23 499.73C234.23 487.46 244.18 477.52 256.44 477.52C256.44 477.52 256.44 477.52 256.44 477.52C268.71 477.52 278.65 487.46 278.65 499.73C278.65 499.73 278.65 499.73 278.65 499.73C278.65 511.99 268.71 521.94 256.44 521.94Z" id="d5JRP8Ipnh"></path><path d="M182.82 481.84C153.29 481.84 129.35 457.9 129.35 428.37C129.35 398.84 153.29 374.9 182.82 374.9C212.35 374.9 236.29 398.84 236.29 428.37C236.29 457.9 212.35 481.84 182.82 481.84Z" id="aGIt6RCF7"></path></defs><g><g><g><use xlink:href="#m3BYycJK1N" opacity="1" fill="#fbd108" fill-opacity="1"></use><g><use xlink:href="#m3BYycJK1N" opacity="1" fill-opacity="0" stroke="#000000" stroke-width="1" stroke-opacity="0"></use></g></g><g><use xlink:href="#abPMShwZY" opacity="1" fill="#ecb61e" fill-opacity="1"></use><g><use xlink:href="#abPMShwZY" opacity="1" fill-opacity="0" stroke="#000000" stroke-width="1" stroke-opacity="0"></use></g></g><g><use xlink:href="#c8wogyrgw" opacity="1" fill="#fbd108" fill-opacity="1"></use><g><use xlink:href="#c8wogyrgw" opacity="1" fill-opacity="0" stroke="#000000" stroke-width="1" stroke-opacity="0"></use></g></g><g><use xlink:href="#a1rbMVkU1s" opacity="1" fill="#ecb61e" fill-opacity="1"></use><g><use xlink:href="#a1rbMVkU1s" opacity="1" fill-opacity="0" stroke="#000000" stroke-width="1" stroke-opacity="0"></use></g></g><g><use xlink:href="#dyFQskIH1" opacity="1" fill="#fbd108" fill-opacity="1"></use><g><use xlink:href="#dyFQskIH1" opacity="1" fill-opacity="0" stroke="#000000" stroke-width="1" stroke-opacity="0"></use></g></g><g><use xlink:href="#d5JRP8Ipnh" opacity="1" fill="#ecb61e" fill-opacity="1"></use><g><use xlink:href="#d5JRP8Ipnh" opacity="1" fill-opacity="0" stroke="#000000" stroke-width="1" stroke-opacity="0"></use></g></g><g><use xlink:href="#aGIt6RCF7" opacity="1" fill="#ecb61e" fill-opacity="1"></use><g><use xlink:href="#aGIt6RCF7" opacity="1" fill-opacity="0" stroke="#000000" stroke-width="1" stroke-opacity="0"></use></g></g></g></g></svg>