<?xml version="1.0" encoding="utf-8"?>
<svg id="master-artboard" viewBox="0 0 1400 980" version="1.1" xmlns="http://www.w3.org/2000/svg" x="0px" y="0px" style="enable-background:new 0 0 1400 980;" width="1400px" height="980px"><rect id="ee-background" x="0" y="0" width="1400" height="980" style="fill: rgb(237, 255, 186); fill-opacity: 0; pointer-events: none;"/><g transform="matrix(2.056490421295166, 0, 0, 2.056490421295166, -655.9556877356627, -928.6721225565989)"><g transform="matrix(1, 0, 0, 1, 0, 0)"><path class="st1" d="M758,754.6c-79.7,0-144.3-64.6-144.3-144.3c0-27.4,7.6-53,20.9-74.8c-56.9,19.3-97.9,73.2-97.9,136.6&#10;&#9;&#9;&#9;c0,79.7,64.6,144.3,144.3,144.3c52.3,0,98.1-27.8,123.4-69.5C789.8,751.9,774.2,754.6,758,754.6z" style="fill: rgb(251, 209, 8);" transform="matrix(1, 0, 0, 1, 0, 0)"/><path d="M 651.599976 743.799988 A 26 26 0 0 1 625.599976 769.799988 A 26 26 0 0 1 599.599976 743.799988 A 26 26 0 0 1 625.599976 717.799988 A 26 26 0 0 1 651.599976 743.799988 Z" class="st4" style="fill: rgb(236, 182, 30);" transform="matrix(1, 0, 0, 1, 0, 0)"/><path d="M 672.200025 778.5 A 10.8 10.8 0 0 1 661.400024 789.3 A 10.8 10.8 0 0 1 650.600024 778.5 A 10.8 10.8 0 0 1 661.400024 767.7 A 10.8 10.8 0 0 1 672.200025 778.5 Z" class="st4" style="fill: rgb(236, 182, 30);" transform="matrix(1, 0, 0, 1, 0, 0)"/><path d="M 740.6 779.599976 A 7.6 7.6 0 0 1 733 787.199975 A 7.6 7.6 0 0 1 725.4 779.599976 A 7.6 7.6 0 0 1 733 771.999976 A 7.6 7.6 0 0 1 740.6 779.599976 Z" class="st4" style="fill: rgb(236, 182, 30);" transform="matrix(1, 0, 0, 1, 0, 0)"/><path d="M 598.500025 614.700012 A 14.1 14.1 0 0 1 584.400024 628.800013 A 14.1 14.1 0 0 1 570.300024 614.700012 A 14.1 14.1 0 0 1 584.400024 600.600012 A 14.1 14.1 0 0 1 598.500025 614.700012 Z" class="st4" style="fill: rgb(236, 182, 30);" transform="matrix(1, 0, 0, 1, 0, 0)"/><path class="st1" d="M694.1,621.6l5.4,16.7c0.8,2.4,3,4,5.5,4h17.6c5.6,0,8,7.2,3.4,10.5l-14.2,10.3c-2,1.5-2.9,4.1-2.1,6.5&#10;&#9;&#9;&#9;l5.4,16.7c1.7,5.4-4.4,9.8-8.9,6.5L692,682.5c-2-1.5-4.8-1.5-6.8,0l-14.2,10.3c-4.6,3.3-10.7-1.1-8.9-6.5l5.4-16.7&#10;&#9;&#9;&#9;c0.8-2.4-0.1-5-2.1-6.5l-14.2-10.3c-4.6-3.3-2.2-10.5,3.4-10.5h17.6c2.5,0,4.7-1.6,5.5-4l5.4-16.7&#10;&#9;&#9;&#9;C684.8,616.2,692.4,616.2,694.1,621.6z" style="fill: rgb(251, 209, 8);" transform="matrix(1, 0, 0, 1, 0, 0)"/><path class="st1" d="M754.1,581.5l4,12.4c0.6,1.8,2.2,3,4.1,3h13.1c4.2,0,5.9,5.4,2.5,7.8l-10.6,7.7c-1.5,1.1-2.2,3.1-1.6,4.8&#10;&#9;&#9;&#9;l4,12.4c1.3,4-3.3,7.3-6.7,4.8l-10.6-7.7c-1.5-1.1-3.6-1.1-5.1,0l-10.6,7.7c-3.4,2.5-8-0.9-6.7-4.8l4-12.4&#10;&#9;&#9;&#9;c0.6-1.8-0.1-3.7-1.6-4.8l-10.6-7.7c-3.4-2.5-1.6-7.8,2.5-7.8h13.1c1.9,0,3.5-1.2,4.1-3l4-12.4&#10;&#9;&#9;&#9;C747.2,577.5,752.8,577.5,754.1,581.5z" style="fill: rgb(251, 209, 8);" transform="matrix(1, 0, 0, 1, 0, 0)"/></g></g></svg>